<svg width="1200" height="900" viewBox="0 0 1200 900" fill="none" xmlns="http://www.w3.org/2000/svg">
  <rect width="1200" height="900" rx="36" fill="#F7F2EA"/>
  <rect x="58" y="58" width="1084" height="784" rx="32" fill="#FFFFFF" stroke="#E8DED0" stroke-width="6"/>
  <rect x="108" y="106" width="984" height="110" rx="24" fill="#D4834F"/>
  <rect x="136" y="280" width="290" height="438" rx="24" fill="#EAF4F1"/>
  <rect x="456" y="280" width="290" height="438" rx="24" fill="#EDF2FA"/>
  <rect x="776" y="280" width="290" height="438" rx="24" fill="#FFF3E8"/>
  <rect x="176" y="338" width="210" height="136" rx="16" fill="#FFFFFF"/>
  <rect x="496" y="338" width="210" height="136" rx="16" fill="#FFFFFF"/>
  <rect x="816" y="338" width="210" height="136" rx="16" fill="#FFFFFF"/>
  <circle cx="220" cy="626" r="36" fill="#11483F" opacity="0.18"/>
  <circle cx="540" cy="626" r="36" fill="#11483F" opacity="0.18"/>
  <circle cx="860" cy="626" r="36" fill="#11483F" opacity="0.18"/>
  <text x="138" y="174" fill="#FFF8F2" font-family="Arial, Microsoft YaHei, sans-serif" font-size="54" font-weight="700">Research Booth Placeholder</text>
  <text x="174" y="530" fill="#11483F" font-family="Arial, Microsoft YaHei, sans-serif" font-size="28">Direction 1</text>
  <text x="494" y="530" fill="#27405A" font-family="Arial, Microsoft YaHei, sans-serif" font-size="28">Direction 2</text>
  <text x="814" y="530" fill="#A55D31" font-family="Arial, Microsoft YaHei, sans-serif" font-size="28">Direction 3</text>
</svg>
