<svg width="1200" height="760" viewBox="0 0 1200 760" fill="none" xmlns="http://www.w3.org/2000/svg">
  <rect width="1200" height="760" rx="28" fill="#0D1826"/>
  <rect x="44" y="40" width="1112" height="80" rx="18" fill="#1F7F6A"/>
  <rect x="44" y="150" width="520" height="520" rx="22" fill="#132232"/>
  <rect x="596" y="150" width="560" height="110" rx="18" fill="#132232"/>
  <rect x="596" y="290" width="480" height="26" rx="13" fill="#7EE3CD" fill-opacity="0.65"/>
  <rect x="596" y="338" width="520" height="26" rx="13" fill="#7EE3CD" fill-opacity="0.4"/>
  <rect x="596" y="404" width="560" height="20" rx="10" fill="#6D8099" fill-opacity="0.45"/>
  <rect x="596" y="440" width="520" height="20" rx="10" fill="#6D8099" fill-opacity="0.45"/>
  <rect x="596" y="476" width="460" height="20" rx="10" fill="#6D8099" fill-opacity="0.45"/>
  <rect x="596" y="548" width="180" height="54" rx="18" fill="#7EE3CD"/>
  <rect x="800" y="548" width="140" height="54" rx="18" fill="#1A2A3C"/>
  <text x="84" y="92" fill="#F5FBFF" font-family="Arial, sans-serif" font-size="38" font-weight="700">Publication Figure Placeholder</text>
  <text x="628" y="222" fill="#F5FBFF" font-family="Arial, sans-serif" font-size="46" font-weight="700">Paper Title Area</text>
  <text x="626" y="588" fill="#07111B" font-family="Arial, sans-serif" font-size="28" font-weight="700">ARXIV</text>
  <text x="840" y="588" fill="#F5FBFF" font-family="Arial, sans-serif" font-size="28" font-weight="700">BIB</text>
</svg>
